<svg width="288" height="685" viewBox="0 0 288 685" fill="none" xmlns="http://www.w3.org/2000/svg">
<path d="M213.483 527.622C195.62 546.688 186.732 597.814 243.596 644.529C245.029 641.002 246.177 637.366 247.028 633.656C257.057 593.136 241.932 558.067 213.483 527.622Z" fill="white"/>
<path d="M173.857 568.118C188.407 543.114 192.576 496.918 159.089 451.576C132.598 470.558 127.5 522.816 173.857 568.118Z" fill="white"/>
<path d="M146.955 113.498C175.481 107.243 208.987 72.5599 216.157 12.8347C191.832 16.4425 143.72 50.1675 146.955 113.498Z" fill="white"/>
<path d="M114.867 461.522C140.38 440.364 155.941 402.335 144.244 352.704C114.101 360.177 88.3822 403.085 114.867 461.522Z" fill="white"/>
<path d="M148.626 264.425C123.523 264.439 86.7159 292.241 92.8 353.362C114.309 345.445 145.894 318.919 148.626 264.425Z" fill="white"/>
<path d="M169.033 184.321C143.121 180.604 106.85 205.54 102.292 260.286C130.985 255.804 160.111 231.62 169.033 184.321Z" fill="white"/>
<path d="M192.846 114.26C176.05 109.869 139.23 119.586 125.28 173.401C148.226 173.782 179.011 157.921 192.846 114.26Z" fill="white"/>
<path d="M115.018 602.431C142.426 645.763 185.875 670.641 229.662 654.35C233.316 652.993 236.821 651.264 240.12 649.189C207.309 619.98 154.3 585.38 115.018 602.431Z" fill="white"/>
<path d="M165.008 575.028C142.877 539.018 104.173 488.295 61.6801 490.197C75.9009 558.816 128.577 586.542 165.008 575.028Z" fill="white"/>
<path d="M32.1064 356.749C26.2617 421.252 68.0824 465.656 108.046 463.434C96.1558 424.264 72.1949 365.787 32.1064 356.749Z" fill="white"/>
<path d="M74.1636 350.166C77.0914 351.868 80.2028 353.233 83.4381 354.234C84.3214 315.913 79.5195 260.374 45.5407 243.138C30.4205 286.209 39.0145 330.869 74.1636 350.166Z" fill="white"/>
<path d="M94.1528 256.117C101.224 219.638 101.917 167.756 71.647 148.27C47.8635 199.44 65.393 242.598 94.1528 256.117Z" fill="white"/>
<path d="M116.445 169.021C130.463 138.561 140.333 94.9642 117.07 73.0909C84.2237 117.833 99.9779 155.804 116.445 169.021Z" fill="white"/>
</svg>
