<svg width="278" height="685" viewBox="0 0 278 685" fill="none" xmlns="http://www.w3.org/2000/svg">
<path d="M71.5007 527.712C90.4705 545.676 102.397 596.18 48.4242 646.208C46.783 642.773 45.4203 639.212 44.3493 635.559C31.9175 595.71 44.9211 559.801 71.5007 527.712Z" fill="white"/>
<path d="M113.476 565.768C97.4585 541.678 90.538 495.814 121.256 448.552C148.834 465.918 157.044 517.778 113.476 565.768Z" fill="white"/>
<path d="M113.177 110.353C84.3283 105.813 48.8098 73.193 38.0858 14.0026C62.5822 16.1511 112.623 46.9423 113.177 110.353Z" fill="white"/>
<path d="M165.994 455.839C139.262 436.243 121.457 399.211 130.169 348.97C160.705 354.63 188.941 395.925 165.994 455.839Z" fill="white"/>
<path d="M120.522 261.11C145.581 259.625 183.983 285.179 181.56 346.555C159.617 339.936 126.504 315.344 120.522 261.11Z" fill="white"/>
<path d="M95.3678 182.369C121.011 177.11 158.707 199.835 166.527 254.211C137.618 251.451 107.099 229.05 95.3678 182.369Z" fill="white"/>
<path d="M67.4122 113.855C83.9168 108.469 121.251 115.969 138.39 168.854C115.508 170.605 83.8301 156.611 67.4122 113.855Z" fill="white"/>
<path d="M174.258 596.506C149.488 641.397 107.602 668.826 62.92 655.179C59.1917 654.043 55.5902 652.526 52.1725 650.653C83.181 619.535 134.028 581.831 174.258 596.506Z" fill="white"/>
<path d="M122.721 572.138C142.661 534.87 178.267 481.925 220.797 481.286C210.7 550.632 159.774 581.454 122.721 572.138Z" fill="white"/>
<path d="M242.348 346.31C252.035 410.349 212.941 457.172 172.916 457.341C182.445 417.53 202.871 357.726 242.348 346.31Z" fill="white"/>
<path d="M199.973 342.251C197.152 344.125 194.128 345.673 190.958 346.865C187.787 308.665 189.263 252.939 222.152 233.705C239.818 275.796 233.907 320.889 199.973 342.251Z" fill="white"/>
<path d="M174.402 249.564C165.165 213.572 161.374 161.824 190.426 140.565C217.224 190.224 202.303 234.351 174.402 249.564Z" fill="white"/>
<path d="M146.948 163.955C131.135 134.386 118.68 91.4568 140.594 68.2331C176.054 110.933 162.596 149.778 146.948 163.955Z" fill="white"/>
</svg>
