<svg width="80" height="77" viewBox="0 0 80 77" fill="none" xmlns="http://www.w3.org/2000/svg">
<path d="M17.9282 76.7C17.0282 76.7 16.1282 76.4 15.3282 75.8C13.7282 74.6 13.1282 72.7 13.7282 70.8L20.6282 49.6C20.9282 48.7 20.6282 47.6 19.8282 47.1L1.82823 34C0.228226 32.8 -0.371773 30.9 0.228227 29C0.828227 27.1 2.52823 25.9 4.42823 25.9H26.7282C27.7282 25.9 28.6282 25.3 28.9282 24.3L35.8282 3.1C36.4282 1.2 38.1282 0 40.0282 0C41.9282 0 43.6282 1.2 44.2282 3.1L51.0282 24.4C51.3282 25.3 52.2282 26 53.2282 26H75.5282C77.5282 26 79.1282 27.2 79.7282 29.1C80.3282 31 79.7282 32.9 78.1282 34.1L60.1282 47.2C59.3282 47.8 59.0282 48.8 59.3282 49.7L66.2282 70.9C66.8282 72.8 66.2282 74.7 64.6282 75.9C63.0282 77.1 61.0282 77.1 59.4282 75.9L41.4282 62.8C40.6282 62.2 39.5282 62.2 38.7282 62.8L20.7282 75.9C19.7282 76.4 18.8282 76.7 17.9282 76.7Z" fill="black"/>
</svg>
